<svg width="565" height="339" viewBox="0 0 565 339" fill="none" xmlns="http://www.w3.org/2000/svg">
<path opacity="0.15" d="M565.002 217.581C565.011 226.76 563.872 235.905 561.61 244.815C560.849 247.817 559.965 250.756 558.957 253.634C557.725 257.185 556.297 260.669 554.678 264.071C553.863 265.791 553.001 267.478 552.093 269.13C552.108 278.542 550.12 287.855 546.255 296.48C539.268 311.955 526.81 324.468 511.151 331.738C501.36 336.291 490.66 338.686 479.812 338.752H107.257C90.6818 338.786 74.3924 334.541 60.0454 326.449L59.8247 326.328C57.7812 325.162 55.7889 323.927 53.8477 322.624C49.4801 319.683 45.3767 316.385 41.5817 312.767C36.4453 307.874 31.9192 302.407 28.0974 296.48C19.1212 282.587 14.3661 266.499 14.3828 250.08C5.29244 234.532 -0.00823975 215.907 -0.00823975 195.894C-0.00823975 170.643 8.41529 147.609 22.2546 130.172C25.1399 126.529 28.3003 123.101 31.7095 119.917C35.0733 116.766 38.6889 113.882 42.522 111.29C45.5887 109.214 48.7938 107.339 52.116 105.678C53.5023 104.991 54.8934 104.341 56.3085 103.738C57.551 103.2 58.8078 102.7 60.079 102.228C61.6044 101.663 63.1491 101.144 64.7129 100.67C66.2767 100.197 67.8197 99.7819 69.342 99.4266C71.5806 98.8935 73.8576 98.4602 76.1729 98.1266C78.0917 97.8507 80.0105 97.659 81.9293 97.514C83.4548 97.4018 84.9946 97.341 86.544 97.3223H87.3835C89.0912 97.3223 90.7894 97.3878 92.4731 97.5C92.6506 97.154 92.8425 96.8033 93.02 96.4619C93.6916 95.2134 94.3871 93.9696 95.0875 92.7538C95.0859 92.743 95.0859 92.7319 95.0875 92.7211C95.2074 92.506 95.3273 92.2956 95.4521 92.0898C96.0181 91.0938 96.6081 90.1072 97.2126 89.1299C97.4908 88.6623 97.7642 88.2227 98.0472 87.7832C98.1071 87.6739 98.1728 87.5678 98.2439 87.4652C98.5317 86.9976 98.8243 86.53 99.1218 86.0624C100.602 83.7555 102.142 81.4892 103.741 79.2634L104.149 78.6929C104.398 78.3469 104.629 78.0102 104.907 77.6642C105.569 76.7617 106.25 75.8546 106.936 74.9661C107.416 74.3302 107.895 73.6989 108.414 73.0957C109.661 71.537 110.94 69.9783 112.251 68.4196C113.562 66.8609 114.925 65.3225 116.338 63.8044C116.53 63.5939 116.722 63.3882 116.923 63.1824L118.972 61.0034C119.072 60.9005 119.159 60.807 119.255 60.7135C119.499 60.4563 119.734 60.1991 119.998 59.9513C121.097 58.815 122.224 57.7021 123.356 56.5939C129.118 51.0001 135.255 45.7872 141.729 40.9899C141.983 40.7935 142.242 40.6064 142.496 40.4194C143.715 39.5263 144.952 38.6425 146.19 37.7727C152.997 33.0123 160.113 28.6857 167.493 24.8201C168.002 24.5348 168.52 24.2683 169.043 24.0064C175.659 20.5944 182.464 17.5409 189.425 14.8601C193.22 13.3965 197.1 12.0217 201.005 10.7638C203.605 9.93151 206.215 9.14126 208.858 8.39776C212.99 7.2381 217.15 6.19846 221.34 5.27883C233.682 2.57928 246.238 0.911661 258.871 0.294155C262.709 0.103996 266.59 0.00579968 270.514 -0.000435059C289.448 -0.0248693 308.308 2.30068 326.639 6.92013C326.828 7.19933 327.087 7.42694 327.392 7.58155C327.697 7.73616 328.037 7.81267 328.38 7.8039H329.992C330.692 7.99094 331.388 8.17799 332.088 8.37438C335.999 9.4717 339.854 10.6703 343.654 11.9703L344.613 12.3069C353.99 15.5572 363.114 19.4641 371.913 23.9971C379.845 28.0735 387.481 32.6729 394.77 37.7634C395.893 38.549 396.999 39.3408 398.09 40.1388C399.414 39.3127 400.76 38.5209 402.129 37.7634C407.415 34.8289 413.029 32.4958 418.861 30.8101C431.054 27.2929 443.955 26.801 456.393 29.3792C472.343 32.6758 486.782 40.8589 498.443 52.4977C503.191 57.2597 507.418 62.4908 511.055 68.1063C511.318 68.5085 511.582 68.9153 511.836 69.3268C514.962 74.2969 517.648 79.5171 519.867 84.9308C519.948 85.1319 520.03 85.3189 520.102 85.5153C522.15 90.5847 523.801 95.7977 525.043 101.11C525.1 101.381 525.167 101.648 525.225 101.919C526.386 107.06 527.175 112.274 527.585 117.523C527.585 117.71 527.585 117.902 527.623 118.098C527.825 120.813 527.927 123.557 527.93 126.328C527.93 128.806 527.844 131.266 527.686 133.707C527.686 133.973 527.647 134.249 527.623 134.525C527.58 135.231 527.518 135.928 527.456 136.639C531.119 139.519 534.548 142.673 537.711 146.07C539.109 147.557 540.462 149.1 541.77 150.7C545.754 155.567 549.255 160.792 552.227 166.304C560.339 181.23 565.002 198.788 565.002 217.581Z" fill="#005AD5"/>
</svg>
