<svg width="597" height="195" viewBox="0 0 597 195" fill="none" xmlns="http://www.w3.org/2000/svg">
<g clip-path="url(#clip0_1_17)">
<g opacity="0.7">
<path opacity="0.7" d="M355.144 194.029H152.635L154.037 99.1727L211.953 89.5854H293.833L353.742 96.3756L355.144 194.029Z" fill="url(#paint0_linear_1_17)"/>
</g>
<path d="M352.34 192.833H155.439L156.841 100.369L212.138 90.7814H294.83L350.938 97.5716L352.34 192.833Z" fill="#CCCCCC"/>
<g opacity="0.7">
<path opacity="0.7" d="M230.921 55.6343H216.145V84.795H230.921V55.6343Z" fill="url(#paint1_linear_1_17)"/>
</g>
<g opacity="0.7">
<path opacity="0.7" d="M216.138 121.901V90.3827H151.954L141.054 121.901V125.131H216.544V121.901H216.138Z" fill="url(#paint2_linear_1_17)"/>
</g>
<path d="M216.145 121.935H141.852L152.635 90.7814H216.145V121.935Z" fill="#005AD5"/>
<path opacity="0.1" d="M216.145 121.935H141.852L152.635 90.7814H216.145V121.935Z" fill="black"/>
<path d="M216.544 121.935H141.852V125.13H216.544V121.935Z" fill="#005AD5"/>
<g opacity="0.7">
<path opacity="0.7" d="M354.395 89.9839H290.04V121.859H289.634V125.131H365.33V121.859L354.395 89.9839Z" fill="url(#paint3_linear_1_17)"/>
</g>
<path d="M290.033 121.935H364.326L353.543 90.7814H290.033V121.935Z" fill="#005AD5"/>
<path opacity="0.1" d="M290.033 121.935H364.326L353.543 90.7814H290.033V121.935Z" fill="black"/>
<path d="M289.634 125.131L364.326 125.131V121.935L289.634 121.935V125.131Z" fill="#005AD5"/>
<path opacity="0.5" d="M202.166 137.715H161.824V162.876H202.166V137.715Z" fill="#005AD5"/>
<path opacity="0.1" d="M204.558 161.082H159.425V165.473H204.558V161.082Z" fill="black"/>
<path d="M204.558 160.683H159.425V165.075H204.558V160.683Z" fill="#535461"/>
<g opacity="0.1">
<path opacity="0.1" d="M202.166 137.715H161.824V147.701H202.166V137.715Z" fill="black"/>
</g>
<path opacity="0.5" d="M344.76 137.715H304.417V162.876H344.76V137.715Z" fill="#005AD5"/>
<path opacity="0.1" d="M347.151 161.082H302.019V165.473H347.151V161.082Z" fill="black"/>
<path d="M347.151 160.683H302.019V165.075H347.151V160.683Z" fill="#535461"/>
<g opacity="0.1">
<path opacity="0.1" d="M344.76 137.715H304.417V147.701H344.76V137.715Z" fill="black"/>
</g>
<g opacity="0.7">
<path opacity="0.7" d="M302.486 92.6507L253.216 54.5487L205.534 92.6232L201.795 87.9429L253.161 46.9338L306.149 87.9154L302.486 92.6507Z" fill="url(#paint4_linear_1_17)"/>
</g>
<path opacity="0.1" d="M209.554 125.131H156.428V125.729H209.554V125.131Z" fill="black"/>
<path opacity="0.1" d="M351.351 125.131H297.627V125.729H351.351V125.131Z" fill="black"/>
<path d="M230.523 56.033H216.544V84.7882H230.523V56.033Z" fill="#535461"/>
<g opacity="0.7">
<path opacity="0.7" d="M297.627 192.833H208.159V83.393L253.278 82.3965L297.627 83.393V192.833Z" fill="url(#paint5_linear_1_17)"/>
</g>
<path d="M296.624 192.833H209.554V83.3933L253.092 52.4388L296.624 83.3933V192.833Z" fill="#CCCCCC"/>
<path d="M264.068 156.085H242.103V192.833H264.068V156.085Z" fill="#535461"/>
<path opacity="0.1" d="M275.655 123.138H230.523V127.529H275.655V123.138Z" fill="black"/>
<path opacity="0.5" d="M273.264 99.7703H232.921V124.931H273.264V99.7703Z" fill="#005AD5"/>
<path d="M275.655 122.739H230.523V127.131H275.655V122.739Z" fill="#535461"/>
<g opacity="0.1">
<path opacity="0.1" d="M273.264 99.7703H232.921V109.756H273.264V99.7703Z" fill="black"/>
</g>
<path d="M302.486 93.0492L253.216 54.9472L205.534 93.0217L201.795 88.3414L253.161 47.3323L306.149 88.3139L302.486 93.0492Z" fill="#005AD5"/>
<path d="M260.879 176.057C261.76 176.057 262.474 175.343 262.474 174.463C262.474 173.582 261.76 172.868 260.879 172.868C259.999 172.868 259.285 173.582 259.285 174.463C259.285 175.343 259.999 176.057 260.879 176.057Z" fill="#E0E0E0"/>
<g opacity="0.7">
<path opacity="0.7" d="M89.9081 116.547H0V194.888H89.9081V116.547Z" fill="url(#paint6_linear_1_17)"/>
</g>
<path d="M88.9597 117.42H1.53947V194.002H88.9597V117.42Z" fill="#CCCCCC"/>
<g opacity="0.7">
<path opacity="0.7" d="M28.9957 93.4063H18.1576V114.787H28.9957V93.4063Z" fill="url(#paint7_linear_1_17)"/>
</g>
<path d="M28.7002 93.7022H18.4531V114.788H28.7002V93.7022Z" fill="#535461"/>
<g opacity="0.7">
<path opacity="0.7" d="M77.9015 194.008H12.302V113.763L45.387 113.028L77.9015 113.763V194.008Z" fill="url(#paint8_linear_1_17)"/>
</g>
<path d="M77.173 194.009H13.3261V113.763L45.2496 91.0631L77.173 113.763V194.009Z" fill="#CCCCCC"/>
<path d="M53.3043 167.06H37.1948V194.001H53.3043V167.06Z" fill="#535461"/>
<path opacity="0.5" d="M60.0394 125.77H30.4595V144.223H60.0394V125.77Z" fill="#005AD5"/>
<path d="M61.7921 142.607H28.7002V145.831H61.7921V142.607Z" fill="#535461"/>
<g opacity="0.1">
<path opacity="0.1" d="M60.0394 125.77H30.4595V133.089H60.0394V125.77Z" fill="black"/>
</g>
<g opacity="0.7">
<path opacity="0.7" d="M81.4615 120.554L45.3389 92.6164L10.3777 120.533L7.63548 117.097L45.2976 87.0289L84.1488 117.076L81.4615 120.554Z" fill="url(#paint9_linear_1_17)"/>
</g>
<path d="M81.4615 120.842L45.3389 92.9047L10.3777 120.821L7.63548 117.392L45.2976 87.3173L84.1488 117.371L81.4615 120.842Z" fill="#005AD5"/>
<path d="M50.9607 181.707C51.606 181.707 52.1291 181.183 52.1291 180.538C52.1291 179.893 51.606 179.37 50.9607 179.37C50.3155 179.37 49.7924 179.893 49.7924 180.538C49.7924 181.183 50.3155 181.707 50.9607 181.707Z" fill="#E0E0E0"/>
<g opacity="0.7">
<path opacity="0.7" d="M588.622 194.256H422.015L423.163 69.9502L470.811 57.387H538.184L587.475 66.2871L588.622 194.256Z" fill="url(#paint10_linear_1_17)"/>
</g>
<path d="M586.32 192.689H424.318L425.472 71.5172L470.969 58.9608H539.002L585.165 67.854L586.32 192.689Z" fill="#CCCCCC"/>
<g opacity="0.7">
<path opacity="0.7" d="M486.419 3.82129H474.261V27.8137H486.419V3.82129Z" fill="url(#paint11_linear_1_17)"/>
</g>
<g opacity="0.7">
<path opacity="0.7" d="M474.261 77.7301V51.7996H421.452L412.483 77.7301V80.3898H474.591V77.7301H474.261Z" fill="url(#paint12_linear_1_17)"/>
</g>
<path d="M474.261 77.7642H413.143L422.015 52.1292H474.261V77.7642Z" fill="#005AD5"/>
<path opacity="0.1" d="M474.261 77.7642H413.143L422.015 52.1292H474.261V77.7642Z" fill="black"/>
<path d="M474.598 77.7643H413.143V80.3966H474.598V77.7643Z" fill="#005AD5"/>
<g opacity="0.7">
<path opacity="0.7" d="M588.011 52.1292H535.064V78.3553H534.727V81.0493H597V78.3553L588.011 52.1292Z" fill="url(#paint13_linear_1_17)"/>
</g>
<path d="M535.057 78.4173H596.182L587.31 52.7892H535.057V78.4173Z" fill="#005AD5"/>
<path opacity="0.1" d="M535.057 78.4173H596.182L587.31 52.7892H535.057V78.4173Z" fill="black"/>
<path d="M534.727 81.0495L596.182 81.0495V78.4173L534.727 78.4173V81.0495Z" fill="#005AD5"/>
<path opacity="0.5" d="M462.756 147.92H429.568V168.621H462.756V147.92Z" fill="#005AD5"/>
<path opacity="0.1" d="M464.736 167.143H427.603V170.758H464.736V167.143Z" fill="black"/>
<path d="M464.736 166.82H427.603V170.435H464.736V166.82Z" fill="#535461"/>
<g opacity="0.1">
<path opacity="0.1" d="M462.756 147.92H429.568V156.133H462.756V147.92Z" fill="black"/>
</g>
<path opacity="0.5" d="M580.08 147.92H546.891V168.621H580.08V147.92Z" fill="#005AD5"/>
<path opacity="0.1" d="M582.052 167.143H544.919V170.758H582.052V167.143Z" fill="black"/>
<path d="M582.052 166.82H544.919V170.435H582.052V166.82Z" fill="#535461"/>
<g opacity="0.1">
<path opacity="0.1" d="M580.08 147.92H546.891V156.133H580.08V147.92Z" fill="black"/>
</g>
<path opacity="0.5" d="M580.08 99.6126H546.891V120.313H580.08V99.6126Z" fill="#005AD5"/>
<path opacity="0.1" d="M582.052 118.842H544.919V122.457H582.052V118.842Z" fill="black"/>
<path d="M582.052 118.512H544.919V122.127H582.052V118.512Z" fill="#535461"/>
<g opacity="0.1">
<path opacity="0.1" d="M580.08 99.6126H546.891V107.825H580.08V99.6126Z" fill="black"/>
</g>
<path opacity="0.5" d="M463.746 99.6126H430.558V120.313H463.746V99.6126Z" fill="#005AD5"/>
<path opacity="0.1" d="M465.719 118.842H428.586V122.457H465.719V118.842Z" fill="black"/>
<path d="M465.719 118.512H428.586V122.127H465.719V118.512Z" fill="#535461"/>
<g opacity="0.1">
<path opacity="0.1" d="M463.746 99.6126H430.558V107.825H463.746V99.6126Z" fill="black"/>
</g>
<g opacity="0.7">
<path opacity="0.7" d="M545.297 38.3841L504.769 7.03788L465.533 38.3634L462.454 34.5148L504.721 0.77002L548.314 34.4873L545.297 38.3841Z" fill="url(#paint14_linear_1_17)"/>
</g>
<path opacity="0.1" d="M468.839 80.3898H425.136V80.8846H468.839V80.3898Z" fill="black"/>
<path opacity="0.1" d="M585.502 81.0495H541.304V81.5443H585.502V81.0495Z" fill="black"/>
<path d="M486.096 4.15149H474.591V27.814H486.096V4.15149Z" fill="#535461"/>
<g opacity="0.7">
<path opacity="0.7" d="M541.469 193.273H467.856V34.1919L504.982 32.7418L541.469 34.1919V193.273Z" fill="url(#paint15_linear_1_17)"/>
</g>
<path d="M540.479 193.273H468.839V33.5595L504.659 6.61871L541.139 34.5492L540.479 193.273Z" fill="#CCCCCC"/>
<path d="M513.697 163.04H495.621V193.273H513.697V163.04Z" fill="#535461"/>
<path opacity="0.1" d="M523.229 135.928H486.096V139.543H523.229V135.928Z" fill="black"/>
<path opacity="0.5" d="M521.256 116.705H488.068V137.405H521.256V116.705Z" fill="#005AD5"/>
<path d="M523.229 135.598H486.096V139.213H523.229V135.598Z" fill="#535461"/>
<g opacity="0.1">
<path opacity="0.1" d="M521.256 116.705H488.068V124.918H521.256V116.705Z" fill="black"/>
</g>
<path opacity="0.5" d="M521.256 76.1218H488.068V96.8223H521.256V76.1218Z" fill="#005AD5"/>
<path d="M523.229 95.0148H486.096V98.6298H523.229V95.0148Z" fill="#535461"/>
<g opacity="0.1">
<path opacity="0.1" d="M521.256 76.1218H488.068V84.3346H521.256V76.1218Z" fill="black"/>
</g>
<path opacity="0.5" d="M521.256 35.5321H488.068V56.2325H521.256V35.5321Z" fill="#005AD5"/>
<path d="M523.229 54.4316H486.096V58.0467H523.229V54.4316Z" fill="#535461"/>
<g opacity="0.1">
<path opacity="0.1" d="M521.256 35.5321H488.068V43.7449H521.256V35.5321Z" fill="black"/>
</g>
<path d="M545.297 39.5391L504.769 8.18601L465.533 39.5116L462.454 35.6629L504.721 1.91815L548.314 35.6354L545.297 39.5391Z" fill="#005AD5"/>
<path d="M511.071 179.466C511.796 179.466 512.384 178.878 512.384 178.153C512.384 177.428 511.796 176.841 511.071 176.841C510.346 176.841 509.759 177.428 509.759 178.153C509.759 178.878 510.346 179.466 511.071 179.466Z" fill="#E0E0E0"/>
</g>
<defs>
<linearGradient id="paint0_linear_1_17" x1="253.89" y1="194.029" x2="253.89" y2="89.5854" gradientUnits="userSpaceOnUse">
<stop stop-color="#808080" stop-opacity="0.25"/>
<stop offset="0.54" stop-color="#808080" stop-opacity="0.12"/>
<stop offset="1" stop-color="#808080" stop-opacity="0.1"/>
</linearGradient>
<linearGradient id="paint1_linear_1_17" x1="5022.11" y1="3620.53" x2="5022.11" y2="2383.53" gradientUnits="userSpaceOnUse">
<stop stop-color="#808080" stop-opacity="0.25"/>
<stop offset="0.54" stop-color="#808080" stop-opacity="0.12"/>
<stop offset="1" stop-color="#808080" stop-opacity="0.1"/>
</linearGradient>
<linearGradient id="paint2_linear_1_17" x1="19780.3" y1="6378.06" x2="19780.3" y2="4621.19" gradientUnits="userSpaceOnUse">
<stop stop-color="#808080" stop-opacity="0.25"/>
<stop offset="0.54" stop-color="#808080" stop-opacity="0.12"/>
<stop offset="1" stop-color="#808080" stop-opacity="0.1"/>
</linearGradient>
<linearGradient id="paint3_linear_1_17" x1="36358.5" y1="6449.79" x2="36358.5" y2="4652.38" gradientUnits="userSpaceOnUse">
<stop stop-color="#808080" stop-opacity="0.25"/>
<stop offset="0.54" stop-color="#808080" stop-opacity="0.12"/>
<stop offset="1" stop-color="#808080" stop-opacity="0.1"/>
</linearGradient>
<linearGradient id="paint4_linear_1_17" x1="38764.9" y1="6158.83" x2="38764.9" y2="3117.74" gradientUnits="userSpaceOnUse">
<stop stop-color="#808080" stop-opacity="0.25"/>
<stop offset="0.54" stop-color="#808080" stop-opacity="0.12"/>
<stop offset="1" stop-color="#808080" stop-opacity="0.1"/>
</linearGradient>
<linearGradient id="paint5_linear_1_17" x1="33129.8" y1="30945" x2="33129.8" y2="13199" gradientUnits="userSpaceOnUse">
<stop stop-color="#808080" stop-opacity="0.25"/>
<stop offset="0.54" stop-color="#808080" stop-opacity="0.12"/>
<stop offset="1" stop-color="#808080" stop-opacity="0.1"/>
</linearGradient>
<linearGradient id="paint6_linear_1_17" x1="5880.89" y1="22244.1" x2="5880.89" y2="13313.9" gradientUnits="userSpaceOnUse">
<stop stop-color="#808080" stop-opacity="0.25"/>
<stop offset="0.54" stop-color="#808080" stop-opacity="0.12"/>
<stop offset="1" stop-color="#808080" stop-opacity="0.1"/>
</linearGradient>
<linearGradient id="paint7_linear_1_17" x1="389.907" y1="3640.49" x2="389.907" y2="2975.33" gradientUnits="userSpaceOnUse">
<stop stop-color="#808080" stop-opacity="0.25"/>
<stop offset="0.54" stop-color="#808080" stop-opacity="0.12"/>
<stop offset="1" stop-color="#808080" stop-opacity="0.1"/>
</linearGradient>
<linearGradient id="paint8_linear_1_17" x1="4316.94" y1="22882.3" x2="4316.94" y2="13340.4" gradientUnits="userSpaceOnUse">
<stop stop-color="#808080" stop-opacity="0.25"/>
<stop offset="0.54" stop-color="#808080" stop-opacity="0.12"/>
<stop offset="1" stop-color="#808080" stop-opacity="0.1"/>
</linearGradient>
<linearGradient id="paint9_linear_1_17" x1="5117.19" y1="5930.07" x2="5117.19" y2="4294.73" gradientUnits="userSpaceOnUse">
<stop stop-color="#808080" stop-opacity="0.25"/>
<stop offset="0.54" stop-color="#808080" stop-opacity="0.12"/>
<stop offset="1" stop-color="#808080" stop-opacity="0.1"/>
</linearGradient>
<linearGradient id="paint10_linear_1_17" x1="122921" y1="38590.1" x2="122921" y2="11332.6" gradientUnits="userSpaceOnUse">
<stop stop-color="#808080" stop-opacity="0.25"/>
<stop offset="0.54" stop-color="#808080" stop-opacity="0.12"/>
<stop offset="1" stop-color="#808080" stop-opacity="0.1"/>
</linearGradient>
<linearGradient id="paint11_linear_1_17" x1="8971.54" y1="947.924" x2="8971.54" y2="110.348" gradientUnits="userSpaceOnUse">
<stop stop-color="#808080" stop-opacity="0.25"/>
<stop offset="0.54" stop-color="#808080" stop-opacity="0.12"/>
<stop offset="1" stop-color="#808080" stop-opacity="0.1"/>
</linearGradient>
<linearGradient id="paint12_linear_1_17" x1="40495.2" y1="3363.98" x2="40495.2" y2="2174.63" gradientUnits="userSpaceOnUse">
<stop stop-color="#808080" stop-opacity="0.25"/>
<stop offset="0.54" stop-color="#808080" stop-opacity="0.12"/>
<stop offset="1" stop-color="#808080" stop-opacity="0.1"/>
</linearGradient>
<linearGradient id="paint13_linear_1_17" x1="51807.9" y1="3430.29" x2="51807.9" y2="2213.33" gradientUnits="userSpaceOnUse">
<stop stop-color="#808080" stop-opacity="0.25"/>
<stop offset="0.54" stop-color="#808080" stop-opacity="0.12"/>
<stop offset="1" stop-color="#808080" stop-opacity="0.1"/>
</linearGradient>
<linearGradient id="paint14_linear_1_17" x1="63600.5" y1="2059.39" x2="63600.5" y2="0.77002" gradientUnits="userSpaceOnUse">
<stop stop-color="#808080" stop-opacity="0.25"/>
<stop offset="0.54" stop-color="#808080" stop-opacity="0.12"/>
<stop offset="1" stop-color="#808080" stop-opacity="0.1"/>
</linearGradient>
<linearGradient id="paint15_linear_1_17" x1="54521.9" y1="44997.6" x2="54521.9" y2="7500.67" gradientUnits="userSpaceOnUse">
<stop stop-color="#808080" stop-opacity="0.25"/>
<stop offset="0.54" stop-color="#808080" stop-opacity="0.12"/>
<stop offset="1" stop-color="#808080" stop-opacity="0.1"/>
</linearGradient>
<clipPath id="clip0_1_17">
<rect width="597" height="194.118" fill="white" transform="translate(0 0.77002)"/>
</clipPath>
</defs>
</svg>
