<svg width="71" height="71" viewBox="0 0 71 71" fill="none" xmlns="http://www.w3.org/2000/svg">
<path fill-rule="evenodd" clip-rule="evenodd" d="M36.3092 5.5005C35.7919 5.29134 35.2146 5.29134 34.6974 5.5005L8.83894 15.9359L35.5033 26.6947L62.1676 15.9359L36.3092 5.5005ZM65.8332 19.1666L37.6697 30.5331V65.1661L65.8332 53.7996V19.171V19.1666ZM33.3368 65.1705V30.5288L5.17336 19.1666V53.8039L33.3368 65.1705ZM33.0899 1.43915C34.6391 0.813985 36.3674 0.813985 37.9167 1.43915L68.8055 13.9074C69.2071 14.0698 69.5513 14.3498 69.7938 14.7113C70.0363 15.0728 70.1659 15.4993 70.166 15.9359V53.8039C70.1655 54.6775 69.9055 55.5309 69.4198 56.254C68.934 56.9771 68.2447 57.5368 67.4407 57.8609L36.3092 70.4253C35.7919 70.6345 35.2146 70.6345 34.6974 70.4253L3.57021 57.8609C2.76539 57.5375 2.07513 56.9781 1.58855 56.2549C1.10197 55.5318 0.841409 54.678 0.840515 53.8039L0.840515 15.9359C0.840616 15.4993 0.970257 15.0728 1.21274 14.7113C1.45522 14.3498 1.79943 14.0698 2.20103 13.9074L33.0899 1.43915Z" fill="#005AD5"/>
</svg>
